<svg width="30" height="30" viewBox="0 0 30 30" fill="none" xmlns="http://www.w3.org/2000/svg">
<path d="M26.6667 7.14286H23.3333C23.3333 3.2 19.6 0 15 0C10.4 0 6.66667 3.2 6.66667 7.14286H3.33333C1.5 7.14286 0.0166667 8.42857 0.0166667 10L0 27.1429C0 28.7143 1.5 30 3.33333 30H26.6667C28.5 30 30 28.7143 30 27.1429V10C30 8.42857 28.5 7.14286 26.6667 7.14286ZM15 2.85714C17.7667 2.85714 20 4.77143 20 7.14286H10C10 4.77143 12.2333 2.85714 15 2.85714ZM15 17.1429C10.4 17.1429 6.66667 13.9429 6.66667 10H10C10 12.3714 12.2333 14.2857 15 14.2857C17.7667 14.2857 20 12.3714 20 10H23.3333C23.3333 13.9429 19.6 17.1429 15 17.1429Z" fill="#030303"/>
</svg>
