<svg width="19" height="18" viewBox="0 0 19 18" fill="none" xmlns="http://www.w3.org/2000/svg">
<g clip-path="url(#clip0_51_52)">
<path d="M12.875 9C12.875 9.78047 12.8328 10.5328 12.759 11.25H6.24102C6.16719 10.5328 6.09336 9.78047 6.09336 9C6.09336 8.21953 6.16719 7.46719 6.24102 6.75H12.759C12.8328 7.46719 12.875 8.21953 12.875 9ZM18.2152 6.75C18.4016 7.4707 18.5 8.22305 18.5 9C18.5 9.77695 18.4016 10.5293 18.2152 11.25H13.8875C13.9613 10.5258 14 9.7418 14 9C14 8.22656 13.9613 7.47422 13.8875 6.75H18.2152ZM17.8461 5.625H13.7434C13.3918 3.37992 12.6957 1.49836 11.7992 0.296789C14.5555 1.0227 16.7914 3.02133 17.8461 5.625ZM12.6043 5.625H6.3957C6.61016 4.34531 6.94062 3.21258 7.34492 2.29746C7.71406 1.46742 8.12539 0.865195 8.52266 0.485508C8.91641 0.111727 9.24336 0 9.5 0C9.75664 0 10.0836 0.111727 10.4773 0.485508C10.8746 0.865195 11.2859 1.46742 11.6551 2.29746C12.0594 3.21258 12.3898 4.34531 12.6043 5.625ZM1.15426 5.625C2.20824 3.02133 4.44453 1.0227 7.20078 0.296789C6.3043 1.49836 5.6082 3.37992 5.25664 5.625H1.15426ZM5.1125 6.75C5.03867 7.47422 4.96836 8.22656 4.96836 9C4.96836 9.7418 5.03867 10.5258 5.1125 11.25H0.783535C0.598437 10.5293 0.5 9.77695 0.5 9C0.5 8.22305 0.598437 7.4707 0.783535 6.75H5.1125ZM7.34492 15.7008C6.94062 14.7867 6.61016 13.6547 6.3957 12.375H12.6043C12.3898 13.6547 12.0594 14.7867 11.6551 15.7008C11.2859 16.534 10.8746 17.1352 10.4773 17.5148C10.0836 17.8875 9.75664 18 9.46836 18C9.24336 18 8.91641 17.8875 8.52266 17.5148C8.12539 17.1352 7.71406 16.534 7.34492 15.7008ZM7.20078 17.7047C4.44453 16.977 2.20824 14.9801 1.15426 12.375H5.25664C5.6082 14.6215 6.3043 16.5023 7.20078 17.7047ZM11.7992 17.7047C12.6957 16.5023 13.3918 14.6215 13.7434 12.375H17.8461C16.7914 14.9801 14.5555 16.977 11.7992 17.7047Z" fill="#030303"/>
</g>
<defs>
<clipPath id="clip0_51_52">
<rect width="18" height="18" fill="white" transform="translate(0.5)"/>
</clipPath>
</defs>
</svg>
