<svg width="22" height="20" viewBox="0 0 22 20" fill="none" xmlns="http://www.w3.org/2000/svg">
<path d="M4.96289 15.5H1.03223V5.50586H4.96289V6.47656H2.11914V9.79199H4.79199V10.7695H2.11914V14.5088H4.96289V15.5ZM12.4414 15.5H11.1221L7.63574 7.22852H7.58105C7.59928 7.47005 7.61296 7.70475 7.62207 7.93262C7.63574 8.15592 7.64486 8.3724 7.64941 8.58203C7.65397 8.79167 7.65625 8.99674 7.65625 9.19727V15.5H6.62402V5.50586H7.93652L11.4297 13.6543H11.4707C11.457 13.3854 11.4434 13.1325 11.4297 12.8955C11.4206 12.6585 11.4137 12.4375 11.4092 12.2324C11.4046 12.0228 11.4023 11.8314 11.4023 11.6582V5.50586H12.4414V15.5ZM17.7529 10.2637H20.2891V15.1514C19.8835 15.3109 19.4642 15.4316 19.0312 15.5137C18.5983 15.5957 18.1608 15.6367 17.7188 15.6367C16.903 15.6367 16.2308 15.4134 15.7021 14.9668C15.1781 14.5156 14.7884 13.9027 14.5332 13.1279C14.2826 12.3486 14.1572 11.4668 14.1572 10.4824C14.1572 9.48438 14.2939 8.60026 14.5674 7.83008C14.8454 7.0599 15.2624 6.45605 15.8184 6.01855C16.3789 5.58105 17.0807 5.3623 17.9238 5.3623C18.334 5.3623 18.7282 5.41699 19.1064 5.52637C19.4847 5.63118 19.8402 5.79069 20.1729 6.00488L19.7832 6.92773C19.4733 6.72721 19.1657 6.5791 18.8604 6.4834C18.5596 6.3877 18.2542 6.33984 17.9443 6.33984C17.3656 6.33984 16.8802 6.50163 16.4883 6.8252C16.0964 7.14876 15.8001 7.62044 15.5996 8.24023C15.3991 8.86003 15.2988 9.61654 15.2988 10.5098C15.2988 11.2936 15.3831 12 15.5518 12.6289C15.7249 13.2533 15.9961 13.7477 16.3652 14.1123C16.7344 14.4723 17.2152 14.6523 17.8076 14.6523C18.0719 14.6523 18.3226 14.6341 18.5596 14.5977C18.8011 14.5566 19.0244 14.4997 19.2295 14.4268V11.2412H17.7529V10.2637Z" fill="black"/>
</svg>
