<svg width="189" height="34" viewBox="0 0 189 34" fill="none" xmlns="http://www.w3.org/2000/svg">
<path d="M15.82 17.195C15.4 17.255 15.025 17.3 14.695 17.33C15.925 17.78 16.96 18.5 17.8 19.49C18.64 20.48 19.36 21.575 19.96 22.775C20.56 23.945 21.13 25.085 21.67 26.195C22.21 27.305 22.795 28.22 23.425 28.94C24.085 29.66 24.895 30.02 25.855 30.02C26.335 30.02 26.725 29.9 27.025 29.66C27.355 29.42 27.67 29.15 27.97 28.85C28.15 28.7 28.345 28.73 28.555 28.94C28.795 29.12 28.855 29.285 28.735 29.435C28.255 30.095 27.595 30.785 26.755 31.505C25.945 32.225 24.97 32.585 23.83 32.585C22.69 32.585 21.685 32.285 20.815 31.685C19.975 31.055 19.21 30.245 18.52 29.255C17.83 28.265 17.185 27.185 16.585 26.015C16.015 24.845 15.43 23.705 14.83 22.595C14.26 21.455 13.645 20.45 12.985 19.58C12.325 18.68 11.56 18.02 10.69 17.6C10.69 17.57 10.675 17.555 10.645 17.555C10.375 17.525 10.105 17.495 9.835 17.465C9.565 17.405 9.31 17.36 9.07 17.33V26.555C9.07 27.695 9.115 28.55 9.205 29.12C9.325 29.69 9.46 30.065 9.61 30.245C9.76 30.425 9.895 30.515 10.015 30.515H12.625C12.865 30.515 12.985 30.8 12.985 31.37C12.985 31.49 12.955 31.625 12.895 31.775C12.865 31.925 12.775 32 12.625 32C11.695 32 10.735 32 9.745 32C8.785 31.97 7.855 31.955 6.955 31.955C5.695 31.955 4.69 31.97 3.94 32C3.19 32 2.575 32.015 2.095 32.045C1.615 32.075 1.135 32.09 0.655 32.09C0.535 32.09 0.445 32.015 0.385 31.865C0.325 31.715 0.295 31.55 0.295 31.37C0.295 31.16 0.325 30.98 0.385 30.83C0.445 30.65 0.535 30.56 0.655 30.56H2.59C3.37 30.56 3.865 30.41 4.075 30.11C4.315 29.81 4.435 29.27 4.435 28.49V7.16C4.435 5.99 4.375 5.135 4.255 4.595C4.165 4.025 4.045 3.65 3.895 3.47C3.775 3.29 3.64 3.2 3.49 3.2H0.88C0.64 3.2 0.52 2.915 0.52 2.345C0.52 2.195 0.535 2.06 0.565 1.94C0.625 1.79 0.73 1.715 0.88 1.715C2.11 1.715 3.19 1.73 4.12 1.76C5.08 1.79 5.89 1.805 6.55 1.805H11.725C14.545 1.805 16.825 2.18 18.565 2.93C20.305 3.65 21.58 4.61 22.39 5.81C23.23 7.01 23.65 8.285 23.65 9.635C23.65 10.955 23.29 12.125 22.57 13.145C21.88 14.165 20.935 15.02 19.735 15.71C18.565 16.37 17.26 16.865 15.82 17.195ZM18.79 10.085C18.79 9.035 18.505 8.015 17.935 7.025C17.365 6.035 16.495 5.225 15.325 4.595C14.155 3.935 12.655 3.605 10.825 3.605C10.165 3.605 9.7 3.77 9.43 4.1C9.19 4.4 9.07 4.85 9.07 5.45V15.665C9.88 15.845 10.675 15.935 11.455 15.935C13.075 15.935 14.425 15.665 15.505 15.125C16.585 14.555 17.395 13.835 17.935 12.965C18.505 12.065 18.79 11.105 18.79 10.085ZM51.043 29.165C50.473 27.335 49.873 25.505 49.243 23.675C48.613 21.845 47.983 19.985 47.353 18.095H39.208C38.218 21.245 37.273 24.44 36.373 27.68C36.253 28.16 36.163 28.58 36.103 28.94C36.043 29.3 36.013 29.6 36.013 29.84C36.013 30.29 36.103 30.515 36.283 30.515H39.523C39.703 30.515 39.823 30.605 39.883 30.785C39.973 30.935 40.018 31.085 40.018 31.235C40.018 31.355 39.973 31.52 39.883 31.73C39.823 31.91 39.673 32 39.433 32C38.953 32 38.353 32 37.633 32C36.913 31.97 36.193 31.955 35.473 31.955C34.753 31.955 34.138 31.955 33.628 31.955C32.758 31.955 31.918 31.97 31.108 32C30.298 32.06 29.473 32.09 28.633 32.09C28.363 32.09 28.228 31.835 28.228 31.325C28.228 30.815 28.363 30.56 28.633 30.56H30.883C31.543 30.56 32.038 30.23 32.368 29.57C33.238 27.71 34.018 25.88 34.708 24.08C35.398 22.28 36.088 20.405 36.778 18.455C37.468 16.505 38.203 14.435 38.983 12.245C39.793 10.055 40.723 7.655 41.773 5.045C41.863 4.805 41.953 4.58 42.043 4.37C42.133 4.13 42.178 3.92 42.178 3.74C42.178 3.47 42.118 3.245 41.998 3.065C41.878 2.885 41.818 2.735 41.818 2.615C41.818 2.375 41.968 2.255 42.268 2.255C42.898 2.255 43.378 2.15 43.708 1.94C44.038 1.73 44.278 1.505 44.428 1.265C44.578 0.994999 44.713 0.754998 44.833 0.544997C44.953 0.334998 45.118 0.229999 45.328 0.229999C45.448 0.229999 45.553 0.379999 45.643 0.679998C45.733 0.949998 45.838 1.25 45.958 1.58L55.003 26.015C55.663 27.755 56.173 28.94 56.533 29.57C56.893 30.2 57.178 30.515 57.388 30.515H59.008C59.308 30.515 59.458 30.74 59.458 31.19C59.458 31.4 59.428 31.595 59.368 31.775C59.338 31.925 59.248 32 59.098 32C57.928 32 56.878 32 55.948 32C55.048 31.97 54.193 31.955 53.383 31.955C52.603 31.955 51.673 31.97 50.593 32C49.543 32.06 48.568 32.09 47.668 32.09C47.398 32.09 47.263 31.82 47.263 31.28C47.263 30.8 47.398 30.56 47.668 30.56H50.233C51.073 30.56 51.343 30.095 51.043 29.165ZM43.303 6.395C42.673 8.045 42.073 9.695 41.503 11.345C40.933 12.965 40.363 14.615 39.793 16.295H46.723C46.213 14.705 45.673 13.1 45.103 11.48C44.563 9.83 44.023 8.135 43.483 6.395H43.303ZM70.3737 26.24C70.3737 27.38 70.4187 28.235 70.5087 28.805C70.6287 29.375 70.7637 29.75 70.9137 29.93C71.0637 30.11 71.1987 30.2 71.3187 30.2H73.9287C74.0487 30.2 74.1387 30.335 74.1987 30.605C74.2587 30.845 74.2887 31.1 74.2887 31.37C74.2887 31.49 74.2587 31.625 74.1987 31.775C74.1687 31.925 74.0787 32 73.9287 32C72.9987 32 72.0387 32 71.0487 32C70.0887 31.97 69.1587 31.955 68.2587 31.955C66.9987 31.955 65.9937 31.97 65.2437 32C64.4937 32 63.8787 32.015 63.3987 32.045C62.9187 32.075 62.4387 32.09 61.9587 32.09C61.8387 32.09 61.7487 32.015 61.6887 31.865C61.6287 31.715 61.5987 31.55 61.5987 31.37C61.5987 31.16 61.6287 30.98 61.6887 30.83C61.7487 30.65 61.8387 30.56 61.9587 30.56H63.8937C64.6737 30.56 65.1687 30.41 65.3787 30.11C65.6187 29.81 65.7387 29.27 65.7387 28.49V7.16C65.7387 5.99 65.6787 5.135 65.5587 4.595C65.4687 4.025 65.3487 3.65 65.1987 3.47C65.0787 3.29 64.9437 3.2 64.7937 3.2H62.1837C61.9437 3.2 61.8237 2.915 61.8237 2.345C61.8237 2.195 61.8387 2.06 61.8687 1.94C61.9287 1.79 62.0337 1.715 62.1837 1.715C63.0537 1.715 63.9537 1.73 64.8837 1.76C65.8137 1.79 66.8037 1.805 67.8537 1.805H81.1737V0.859999C81.1737 0.709999 81.2487 0.604998 81.3987 0.544997C81.5487 0.484998 81.6987 0.454998 81.8487 0.454998C81.9987 0.454998 82.1337 0.484998 82.2537 0.544997C82.4037 0.604998 82.4787 0.709999 82.4787 0.859999C82.4787 1.97 82.5087 3.155 82.5687 4.415C82.6287 5.645 82.7487 6.74 82.9287 7.7C82.9887 7.82 82.9437 7.91 82.7937 7.97C82.6437 8.03 82.4787 8.06 82.2987 8.06C82.1187 8.06 81.9387 8.03 81.7587 7.97C81.6087 7.91 81.5187 7.82 81.4887 7.7C81.3387 7.07 81.1437 6.425 80.9037 5.765C80.6637 5.105 80.2887 4.655 79.7787 4.415C78.9987 4.115 77.9637 3.89 76.6737 3.74C75.4137 3.59 73.8087 3.5 71.8587 3.47C71.3187 3.5 70.9287 3.65 70.6887 3.92C70.4787 4.19 70.3737 4.73 70.3737 5.54V16.34C71.6937 16.31 72.9837 16.265 74.2437 16.205C75.5337 16.115 76.6137 16.025 77.4837 15.935C78.3837 15.845 78.8787 15.77 78.9687 15.71L79.4187 13.055C79.4487 12.845 79.6887 12.74 80.1387 12.74C80.3187 12.74 80.4837 12.77 80.6337 12.83C80.7837 12.89 80.8437 12.995 80.8137 13.145C80.7237 13.835 80.6637 14.465 80.6337 15.035C80.6037 15.605 80.5887 16.235 80.5887 16.925C80.5887 17.585 80.6037 18.275 80.6337 18.995C80.6637 19.685 80.7237 20.375 80.8137 21.065C80.8437 21.185 80.7687 21.275 80.5887 21.335C80.4087 21.395 80.2137 21.425 80.0037 21.425C79.6137 21.425 79.4187 21.335 79.4187 21.155L78.9237 18.455C78.8337 18.395 78.3537 18.32 77.4837 18.23C76.6437 18.14 75.5787 18.05 74.2887 17.96C73.0287 17.87 71.7237 17.81 70.3737 17.78V26.24ZM95.1589 26.24C95.1589 27.38 95.2039 28.235 95.2939 28.805C95.4139 29.375 95.5489 29.75 95.6989 29.93C95.8489 30.11 95.9839 30.2 96.1039 30.2H98.7139C98.8339 30.2 98.9239 30.335 98.9839 30.605C99.0439 30.845 99.0739 31.1 99.0739 31.37C99.0739 31.49 99.0439 31.625 98.9839 31.775C98.9539 31.925 98.8639 32 98.7139 32C97.7839 32 96.8239 32 95.8339 32C94.8739 31.97 93.9439 31.955 93.0439 31.955C91.7839 31.955 90.7789 31.97 90.0289 32C89.2789 32 88.6639 32.015 88.1839 32.045C87.7039 32.075 87.2239 32.09 86.7439 32.09C86.6239 32.09 86.5339 32.015 86.4739 31.865C86.4139 31.715 86.3839 31.55 86.3839 31.37C86.3839 31.16 86.4139 30.98 86.4739 30.83C86.5339 30.65 86.6239 30.56 86.7439 30.56H88.6789C89.4589 30.56 89.9539 30.41 90.1639 30.11C90.4039 29.81 90.5239 29.27 90.5239 28.49V7.16C90.5239 5.99 90.4639 5.135 90.3439 4.595C90.2539 4.025 90.1339 3.65 89.9839 3.47C89.8639 3.29 89.7289 3.2 89.5789 3.2H86.9689C86.7289 3.2 86.6089 2.915 86.6089 2.345C86.6089 2.195 86.6239 2.06 86.6539 1.94C86.7139 1.79 86.8189 1.715 86.9689 1.715C87.8389 1.715 88.7389 1.73 89.6689 1.76C90.5989 1.79 91.5889 1.805 92.6389 1.805H105.959V0.859999C105.959 0.709999 106.034 0.604998 106.184 0.544997C106.334 0.484998 106.484 0.454998 106.634 0.454998C106.784 0.454998 106.919 0.484998 107.039 0.544997C107.189 0.604998 107.264 0.709999 107.264 0.859999C107.264 1.97 107.294 3.155 107.354 4.415C107.414 5.645 107.534 6.74 107.714 7.7C107.774 7.82 107.729 7.91 107.579 7.97C107.429 8.03 107.264 8.06 107.084 8.06C106.904 8.06 106.724 8.03 106.544 7.97C106.394 7.91 106.304 7.82 106.274 7.7C106.124 7.07 105.929 6.425 105.689 5.765C105.449 5.105 105.074 4.655 104.564 4.415C103.784 4.115 102.749 3.89 101.459 3.74C100.199 3.59 98.5939 3.5 96.6439 3.47C96.1039 3.5 95.7139 3.65 95.4739 3.92C95.2639 4.19 95.1589 4.73 95.1589 5.54V16.34C96.4789 16.31 97.7689 16.265 99.0289 16.205C100.319 16.115 101.399 16.025 102.269 15.935C103.169 15.845 103.664 15.77 103.754 15.71L104.204 13.055C104.234 12.845 104.474 12.74 104.924 12.74C105.104 12.74 105.269 12.77 105.419 12.83C105.569 12.89 105.629 12.995 105.599 13.145C105.509 13.835 105.449 14.465 105.419 15.035C105.389 15.605 105.374 16.235 105.374 16.925C105.374 17.585 105.389 18.275 105.419 18.995C105.449 19.685 105.509 20.375 105.599 21.065C105.629 21.185 105.554 21.275 105.374 21.335C105.194 21.395 104.999 21.425 104.789 21.425C104.399 21.425 104.204 21.335 104.204 21.155L103.709 18.455C103.619 18.395 103.139 18.32 102.269 18.23C101.429 18.14 100.364 18.05 99.0739 17.96C97.8139 17.87 96.5089 17.81 95.1589 17.78V26.24ZM119.944 26.555C119.944 27.695 119.989 28.55 120.079 29.12C120.199 29.69 120.334 30.065 120.484 30.245C120.634 30.425 120.769 30.515 120.889 30.515H123.499C123.739 30.515 123.859 30.8 123.859 31.37C123.859 31.49 123.829 31.625 123.769 31.775C123.739 31.925 123.649 32 123.499 32C122.569 32 121.609 32 120.619 32C119.659 31.97 118.729 31.955 117.829 31.955C116.569 31.955 115.564 31.97 114.814 32C114.064 32 113.449 32.015 112.969 32.045C112.489 32.075 112.009 32.09 111.529 32.09C111.409 32.09 111.319 32.015 111.259 31.865C111.199 31.715 111.169 31.55 111.169 31.37C111.169 31.16 111.199 30.98 111.259 30.83C111.319 30.65 111.409 30.56 111.529 30.56H113.464C114.244 30.56 114.739 30.41 114.949 30.11C115.189 29.81 115.309 29.27 115.309 28.49V7.16C115.309 5.99 115.249 5.135 115.129 4.595C115.039 4.025 114.919 3.65 114.769 3.47C114.649 3.29 114.514 3.2 114.364 3.2H111.754C111.514 3.2 111.394 2.915 111.394 2.345C111.394 2.195 111.409 2.06 111.439 1.94C111.499 1.79 111.604 1.715 111.754 1.715C112.714 1.715 113.674 1.73 114.634 1.76C115.594 1.76 116.524 1.76 117.424 1.76C118.714 1.76 119.719 1.76 120.439 1.76C121.189 1.73 121.804 1.7 122.284 1.67C122.764 1.64 123.244 1.625 123.724 1.625C123.874 1.625 123.964 1.7 123.994 1.85C124.054 2 124.084 2.165 124.084 2.345C124.084 2.555 124.054 2.75 123.994 2.93C123.934 3.08 123.844 3.155 123.724 3.155H121.789C121.039 3.155 120.544 3.305 120.304 3.605C120.064 3.905 119.944 4.445 119.944 5.225V26.555ZM155.26 32.54C155.26 32.54 154.93 32.15 154.27 31.37C153.61 30.59 152.71 29.525 151.57 28.175C150.46 26.825 149.185 25.295 147.745 23.585C146.305 21.875 144.805 20.09 143.245 18.23C141.715 16.37 140.2 14.54 138.7 12.74C137.2 10.94 135.82 9.275 134.56 7.745H134.38C134.44 12.065 134.485 15.86 134.515 19.13C134.545 22.4 134.59 25.1 134.65 27.23C134.68 28.01 134.77 28.76 134.92 29.48C135.07 30.17 135.295 30.515 135.595 30.515H138.07C138.22 30.515 138.325 30.605 138.385 30.785C138.445 30.935 138.475 31.115 138.475 31.325C138.475 31.775 138.34 32 138.07 32C136.96 32 136.045 32 135.325 32C134.605 31.97 133.93 31.955 133.3 31.955C132.28 31.955 131.29 31.97 130.33 32C129.37 32.06 128.575 32.09 127.945 32.09C127.825 32.09 127.735 32.015 127.675 31.865C127.645 31.685 127.63 31.505 127.63 31.325C127.63 31.145 127.645 30.98 127.675 30.83C127.735 30.65 127.825 30.56 127.945 30.56H129.43C130.09 30.56 130.57 30.485 130.87 30.335C131.2 30.155 131.38 29.825 131.41 29.345C131.56 27.815 131.68 26.03 131.77 23.99C131.89 21.95 131.98 19.805 132.04 17.555C132.13 15.305 132.19 13.115 132.22 10.985C132.28 8.825 132.31 6.875 132.31 5.135L131.995 4.775C131.635 4.325 131.29 3.995 130.96 3.785C130.66 3.545 130.27 3.38 129.79 3.29C129.34 3.2 128.68 3.155 127.81 3.155C127.72 3.155 127.645 3.095 127.585 2.975C127.555 2.825 127.54 2.675 127.54 2.525C127.54 2.345 127.555 2.165 127.585 1.985C127.645 1.805 127.72 1.715 127.81 1.715C128.2 1.715 128.74 1.73 129.43 1.76C130.15 1.76 130.915 1.76 131.725 1.76C132.565 1.76 133.36 1.775 134.11 1.805C134.86 1.805 135.475 1.805 135.955 1.805C135.955 1.805 136.24 2.18 136.81 2.93C137.41 3.65 138.19 4.625 139.15 5.855C140.14 7.085 141.235 8.465 142.435 9.995C143.665 11.495 144.91 13.04 146.17 14.63C147.43 16.22 148.63 17.75 149.77 19.22C150.91 20.66 151.9 21.92 152.74 23C153.61 24.08 154.225 24.875 154.585 25.385H154.765C154.735 22.595 154.705 19.925 154.675 17.375C154.645 14.825 154.6 12.5 154.54 10.4C154.48 8.27 154.39 6.47 154.27 5C154.18 3.8 153.85 3.2 153.28 3.2H151.12C151 3.2 150.895 3.14 150.805 3.02C150.745 2.87 150.715 2.72 150.715 2.57C150.715 2.39 150.745 2.21 150.805 2.03C150.895 1.82 151 1.715 151.12 1.715C151.78 1.715 152.575 1.73 153.505 1.76C154.435 1.79 155.275 1.805 156.025 1.805C156.865 1.805 157.765 1.79 158.725 1.76C159.685 1.7 160.555 1.67 161.335 1.67C161.455 1.67 161.545 1.775 161.605 1.985C161.695 2.195 161.74 2.39 161.74 2.57C161.74 2.96 161.605 3.155 161.335 3.155H159.22C158.59 3.155 158.185 3.305 158.005 3.605C157.855 3.905 157.735 4.43 157.645 5.18C157.555 6.02 157.465 7.37 157.375 9.23C157.285 11.06 157.21 13.235 157.15 15.755C157.09 18.245 157.03 20.93 156.97 23.81C156.94 26.69 156.925 29.6 156.925 32.54C156.865 32.75 156.625 32.855 156.205 32.855C155.785 32.855 155.47 32.75 155.26 32.54ZM174.129 16.16C175.449 16.13 176.724 16.085 177.954 16.025C179.184 15.935 180.219 15.845 181.059 15.755C181.899 15.665 182.364 15.59 182.454 15.53L182.904 12.875C182.934 12.665 183.174 12.56 183.624 12.56C183.804 12.56 183.969 12.59 184.119 12.65C184.269 12.71 184.329 12.815 184.299 12.965C184.209 13.655 184.149 14.285 184.119 14.855C184.089 15.425 184.074 16.055 184.074 16.745C184.074 17.405 184.089 18.095 184.119 18.815C184.149 19.505 184.209 20.195 184.299 20.885C184.329 21.005 184.254 21.095 184.074 21.155C183.894 21.215 183.699 21.245 183.489 21.245C183.099 21.245 182.904 21.155 182.904 20.975L182.409 18.275C182.319 18.215 181.869 18.14 181.059 18.05C180.249 17.96 179.229 17.87 177.999 17.78C176.769 17.69 175.479 17.63 174.129 17.6V26.24C174.129 27.38 174.174 28.235 174.264 28.805C174.384 29.375 174.519 29.75 174.669 29.93C174.819 30.11 174.954 30.2 175.074 30.2H177.369C179.319 30.17 181.179 29.99 182.949 29.66C184.749 29.33 186.069 28.88 186.909 28.31L187.224 25.835C187.254 25.715 187.344 25.625 187.494 25.565C187.674 25.505 187.869 25.475 188.079 25.475C188.529 25.475 188.739 25.595 188.709 25.835C188.559 26.945 188.454 28.13 188.394 29.39C188.334 30.65 188.304 31.85 188.304 32.99C188.304 33.2 188.079 33.305 187.629 33.305C187.449 33.305 187.284 33.275 187.134 33.215C186.984 33.185 186.909 33.11 186.909 32.99V32H175.794C173.874 32 172.314 32 171.114 32C169.944 32.03 169.014 32.045 168.324 32.045C167.664 32.045 167.139 32.045 166.749 32.045C166.389 32.075 166.044 32.09 165.714 32.09C165.594 32.09 165.504 32.015 165.444 31.865C165.384 31.715 165.354 31.55 165.354 31.37C165.354 31.16 165.384 30.98 165.444 30.83C165.504 30.65 165.594 30.56 165.714 30.56H167.649C168.429 30.56 168.924 30.41 169.134 30.11C169.374 29.81 169.494 29.27 169.494 28.49V7.16C169.494 5.99 169.434 5.135 169.314 4.595C169.224 4.025 169.104 3.65 168.954 3.47C168.834 3.29 168.699 3.2 168.549 3.2H165.939C165.699 3.2 165.579 2.915 165.579 2.345C165.579 2.195 165.594 2.06 165.624 1.94C165.684 1.79 165.789 1.715 165.939 1.715C166.719 1.715 167.574 1.73 168.504 1.76C169.434 1.79 170.469 1.805 171.609 1.805H184.659V0.859999C184.659 0.709999 184.734 0.604998 184.884 0.544997C185.034 0.484998 185.184 0.454998 185.334 0.454998C185.484 0.454998 185.619 0.484998 185.739 0.544997C185.889 0.604998 185.964 0.709999 185.964 0.859999C185.964 1.97 185.994 3.155 186.054 4.415C186.114 5.645 186.234 6.74 186.414 7.7C186.474 7.82 186.429 7.91 186.279 7.97C186.129 8.03 185.964 8.06 185.784 8.06C185.604 8.06 185.424 8.03 185.244 7.97C185.094 7.91 185.004 7.82 184.974 7.7C184.824 7.07 184.629 6.425 184.389 5.765C184.149 5.105 183.774 4.655 183.264 4.415C182.484 4.115 181.494 3.89 180.294 3.74C179.124 3.59 177.564 3.5 175.614 3.47C175.014 3.5 174.609 3.68 174.399 4.01C174.219 4.31 174.129 4.82 174.129 5.54V16.16Z" fill="#303030"/>
</svg>
